<svg width="19" height="21" viewBox="0 0 19 21" fill="none" xmlns="http://www.w3.org/2000/svg">
<path d="M12.6087 16.6538V17.4231C12.6087 18.2391 12.2845 19.0218 11.7075 19.5988C11.1305 20.1758 10.3478 20.5 9.53179 20.5C8.71574 20.5 7.93311 20.1758 7.35607 19.5988C6.77904 19.0218 6.45486 18.2391 6.45486 17.4231V16.6538M17.7856 15.088C16.551 13.5769 15.6794 12.8077 15.6794 8.64183C15.6794 4.82692 13.7313 3.46779 12.1279 2.80769C11.915 2.72019 11.7145 2.51923 11.6496 2.30048C11.3683 1.34327 10.5799 0.5 9.53179 0.5C8.48371 0.5 7.69477 1.34375 7.4164 2.30144C7.3515 2.5226 7.15102 2.72019 6.93804 2.80769C5.33275 3.46875 3.3866 4.82308 3.3866 8.64183C3.38419 12.8077 2.51256 13.5769 1.27794 15.088C0.766403 15.7139 1.21448 16.6538 2.10919 16.6538H16.9592C17.8491 16.6538 18.2943 15.7111 17.7856 15.088Z" stroke="black" stroke-linecap="round" stroke-linejoin="round"/>
</svg>
